<svg preserveAspectRatio="xMidYMid meet" width="20" height="18" overflow="visible" style="display: block; margin: auto;" viewBox="0 0 20 18" fill="none" xmlns="http://www.w3.org/2000/svg">
<g id="Group">
<path id="Vector" d="M19.8946 5.89L18.8446 1.52C18.6246 0.62 17.8446 0 16.9346 0H3.04464C2.14464 0 1.35464 0.63 1.14464 1.52L0.0946355 5.89C-0.145364 6.91 0.0746356 7.95 0.714636 8.77C0.794636 8.88 0.904636 8.96 0.994636 9.06V16C0.994636 17.1 1.89464 18 2.99464 18H16.9946C18.0946 18 18.9946 17.1 18.9946 16V9.06C19.0846 8.97 19.1946 8.88 19.2746 8.78C19.9146 7.96 20.1446 6.91 19.8946 5.89ZM16.9046 1.99L17.9546 6.36C18.0546 6.78 17.9646 7.2 17.7046 7.53C17.5646 7.71 17.2646 8 16.7646 8C16.1546 8 15.6246 7.51 15.5546 6.86L14.9746 2L16.9046 1.99ZM10.9946 2H12.9546L13.4946 6.52C13.5446 6.91 13.4246 7.3 13.1646 7.59C12.9446 7.85 12.6246 8 12.2146 8C11.5446 8 10.9946 7.41 10.9946 6.69V2ZM6.48464 6.52L7.03464 2H8.99464V6.69C8.99464 7.41 8.44464 8 7.70464 8C7.36464 8 7.05464 7.85 6.81464 7.59C6.56464 7.3 6.44464 6.91 6.48464 6.52ZM2.03464 6.36L3.04464 2H5.01464L4.43464 6.86C4.35464 7.51 3.83464 8 3.22464 8C2.73464 8 2.42464 7.71 2.29464 7.53C2.02464 7.21 1.93464 6.78 2.03464 6.36ZM2.99464 16V9.97C3.07464 9.98 3.14464 10 3.22464 10C4.09464 10 4.88464 9.64 5.46464 9.05C6.06464 9.65 6.86464 10 7.77464 10C8.64464 10 9.42464 9.64 10.0046 9.07C10.5946 9.64 11.3946 10 12.2946 10C13.1346 10 13.9346 9.65 14.5346 9.05C15.1146 9.64 15.9046 10 16.7746 10C16.8546 10 16.9246 9.98 17.0046 9.97V16H2.99464Z" fill="white"/>
</g>
</svg>
